# xmcd CD database file
#
# Track frame offsets:
#	150
#	23461
#	47738
#	71478
#	93996
#	118945
#	147477
#	177300
#	200372
#	224063
#
# Disc length: 3227 seconds
#
# Revision: 1
# Processed by: cddbd v1.4PL0 Copyright (c) Steve Scherf et al.
# Submitted via: CDex 1.51
#
DISCID=950c990a
DTITLE=Mind Body and Soul (Llewellyn) - Color Healing
DYEAR=2001
DGENRE=New Age
TTITLE0=Mind Body and Soul -  Brilliance
TTITLE1=Mind Body and Soul - Red
TTITLE2=Mind Body and Soul - Orange
TTITLE3=Mind Body and Soul - Yellow
TTITLE4=Mind Body and Soul - Green
TTITLE5=Mind Body and Soul - Blue
TTITLE6=Mind Body and Soul - Indigo
TTITLE7=Mind Body and Soul - Purple
TTITLE8=Mind Body and Soul - Silver
TTITLE9=Mind Body and Soul - Gold
EXTD=YEAR: 2001
EXTT0=
EXTT1=
EXTT2=
EXTT3=
EXTT4=
EXTT5=
EXTT6=
EXTT7=
EXTT8=
EXTT9=
PLAYORDER=
